<svg version="1.1" id="Layer_1" xmlns="http://www.w3.org/2000/svg" xmlns:xlink="http://www.w3.org/1999/xlink" x="0px" y="0px"
	 width="100%" viewBox="0 0 138 130" enable-background="new 0 0 138 130" xml:space="preserve">
<path fill="#000000" opacity="1.000000" stroke="none" 
	d="
M139.000000,44.000000 
	C139.000000,73.333328 139.000000,102.166656 139.000000,131.000000 
	C94.166672,131.000000 49.333252,130.962967 4.500250,131.083466 
	C1.517172,131.091476 0.907185,130.483231 0.916222,127.499779 
	C1.040413,86.500153 1.040400,45.499916 0.916239,4.500296 
	C0.907204,1.517041 1.516850,0.908119 4.500190,0.916426 
	C48.166512,1.038007 91.833382,1.037993 135.499710,0.916449 
	C138.482758,0.908146 139.136093,1.510198 139.088577,4.501348 
	C138.882141,17.498087 139.000000,30.499981 139.000000,44.000000 
z"/>
<path fill="#027F3D" opacity="1.000000" stroke="none" 
	d="
M27.662004,109.825783 
	C27.786444,110.532585 27.823372,110.940346 27.901558,111.652412 
	C27.989191,112.337250 28.189445,112.584854 28.754589,112.868896 
	C28.942162,113.058525 28.932907,113.032745 28.945522,113.033463 
	C29.129810,113.187294 29.301479,113.340401 29.765385,113.651276 
	C31.428709,114.126602 32.839031,113.835052 34.593769,114.001007 
	C36.303135,114.369194 37.680729,113.682869 39.445984,114.114777 
	C63.450199,113.902946 87.021255,113.946594 111.047783,114.049545 
	C111.770676,113.847595 112.038147,113.706665 112.644417,113.264275 
	C112.983215,112.962822 113.008820,113.006813 112.984200,113.000366 
	C113.987839,112.161156 114.441498,111.055092 114.498947,109.455650 
	C114.501572,108.949249 114.503036,108.747208 114.534668,108.244316 
	C114.567917,107.741913 114.570976,107.540359 114.429214,107.073372 
	C114.261078,105.808830 114.237755,104.809715 114.237869,103.436310 
	C114.311333,102.870552 114.361351,102.679085 114.338745,102.199783 
	C114.254265,101.201752 114.242409,100.491539 114.252357,99.426682 
	C114.771736,93.631104 114.392799,88.179489 114.376740,82.313858 
	C114.260895,77.256691 114.241692,72.619133 114.249237,67.520432 
	C114.779839,56.588947 114.363831,46.112045 114.500015,35.209881 
	C114.304802,33.392998 114.864349,32.046162 114.533722,30.299545 
	C114.344498,29.937700 114.198669,29.463360 114.151459,29.219769 
	C114.004517,28.113033 113.415581,27.732487 112.283813,27.455893 
	C111.659355,27.303150 111.413170,27.208794 110.772369,27.118145 
	C104.875755,27.062725 99.372551,26.753740 93.463776,27.103495 
	C91.157661,27.202242 89.259430,26.806526 86.934906,27.064293 
	C85.930473,26.909834 85.357521,26.924118 84.367447,27.047905 
	C81.957779,26.781277 79.949928,27.335047 77.548935,26.898365 
	C76.298416,26.476212 75.339691,27.661276 74.106911,26.896896 
	C72.212563,26.532854 70.717278,27.369982 68.783234,26.876534 
	C61.374832,27.044235 54.436459,27.158655 47.047668,26.891777 
	C45.718578,26.455452 44.712540,27.696323 43.423332,26.895178 
	C41.264557,26.967476 39.542454,26.886257 37.397377,27.120682 
	C36.397583,27.085327 35.830368,27.081316 34.840702,27.158142 
	C34.291317,27.407715 34.119305,27.479078 33.774487,27.370487 
	C33.222858,27.066925 32.769943,26.968016 31.932281,27.003384 
	C30.862688,27.010380 30.153849,27.037380 29.289970,27.736805 
	C29.032593,27.982456 29.033808,28.013796 29.020893,28.005507 
	C28.729982,28.325073 28.510603,28.688889 28.091305,29.288866 
	C26.819305,29.925793 27.308102,31.030643 26.927681,32.015362 
	C27.002453,33.747421 26.949366,35.183903 27.476154,36.879566 
	C27.487993,37.620193 27.412020,38.027374 27.162315,38.708668 
	C27.019388,39.618923 27.120049,40.188725 27.832037,40.811878 
	C28.504448,40.999077 28.931816,41.019032 29.679279,41.012695 
	C30.812691,41.005539 31.625931,40.999691 32.743729,40.962746 
	C33.492401,40.997501 33.936470,41.048420 34.710358,41.159569 
	C37.253788,42.061230 35.974709,43.304302 35.223106,44.748867 
	C35.032871,45.032890 34.993259,45.014236 35.014439,45.012955 
	C34.785675,45.217300 34.550110,45.438251 34.170132,45.857628 
	C34.011349,46.040730 33.991753,45.991959 34.016479,46.000866 
	C33.789024,46.214359 33.552132,46.435341 33.170593,46.855812 
	C33.010654,47.038914 32.991329,46.991039 33.015434,47.000275 
	C32.789711,47.213940 32.554276,47.433777 32.170685,47.847923 
	C32.008141,48.026825 31.990604,47.990318 32.008995,47.998810 
	C31.785374,48.217110 31.553743,48.437805 31.169672,48.845745 
	C31.006849,49.022091 30.991690,48.991604 31.007122,48.998817 
	C30.783791,49.218227 30.553642,49.439392 30.168671,49.844505 
	C30.005234,50.019485 29.991547,49.991695 30.005714,49.997971 
	C29.780794,50.220112 29.549707,50.444225 29.167217,50.857971 
	C29.007809,51.039352 29.000662,50.981129 29.028393,50.990685 
	C28.797729,51.206154 28.556011,51.430077 28.167400,51.857468 
	C28.003826,52.042938 27.988995,51.987915 28.016495,51.995369 
	C27.792225,52.211128 27.554310,52.434208 27.165905,52.853401 
	C27.001564,53.034737 26.985788,52.983864 27.010849,52.992874 
	C26.790937,53.212765 26.556349,53.434628 26.160292,53.838188 
	C25.988438,54.008896 25.979353,53.979534 25.994007,53.984150 
	C25.783304,54.216541 25.557131,54.443504 25.159477,54.838837 
	C24.988813,55.008026 24.980497,54.980549 24.994261,54.984634 
	C24.783066,55.216705 24.557102,55.443691 24.159595,55.838852 
	C23.989058,56.008026 23.983541,55.983322 23.995447,55.987465 
	C22.683157,56.949829 21.283976,57.252411 19.372536,56.244659 
	C18.983545,56.012112 19.001204,55.992958 18.999512,56.005569 
	C18.781637,55.783436 18.559423,55.554543 18.160599,55.163700 
	C17.990013,54.995899 18.011179,54.989708 18.007486,55.000114 
	C17.782209,54.783440 17.559214,54.557747 17.170862,54.160973 
	C17.006916,53.988503 17.001648,53.998322 17.006330,53.995697 
	C16.778461,53.776775 16.550991,53.555264 16.160759,53.159592 
	C15.992916,52.990646 16.014835,52.984444 16.012203,52.995522 
	C15.782048,52.781376 15.555024,52.555645 15.155832,52.162567 
	C14.983164,51.995716 15.018125,51.982082 15.011641,51.999695 
	C14.783775,51.784534 14.558541,51.555553 14.155981,51.163208 
	C13.982508,50.996056 14.017719,50.982410 14.011038,51.000072 
	C13.785623,50.786896 13.563027,50.559845 13.167686,50.168198 
	C12.998799,49.999821 13.000153,49.999847 13.000212,50.000603 
	C12.777042,49.761417 12.539863,49.536171 12.109465,49.157974 
	C11.645208,48.884666 11.409993,48.711418 11.118200,48.276466 
	C10.786020,47.837776 10.563121,47.590569 10.165304,47.165520 
	C9.987459,46.990318 10.021592,46.979866 10.015076,46.996483 
	C9.784806,46.785664 9.560131,46.559139 9.168518,46.161205 
	C9.002500,45.988880 9.005406,45.994404 9.008190,45.995754 
	C8.781609,45.781506 8.557251,45.560814 8.180609,45.159035 
	C8.023314,44.983036 7.999252,45.000153 8.009603,44.989296 
	C7.851047,44.824356 7.682141,44.670273 7.381432,44.199593 
	C7.249629,43.882992 7.108512,43.480827 7.051434,43.275513 
	C6.864948,42.886707 6.735541,42.703220 6.795741,42.241386 
	C6.985347,41.963039 7.010996,42.009472 6.984929,42.004585 
	C7.127635,41.843239 7.296409,41.686783 7.755448,41.343468 
	C11.848282,41.035385 16.112976,41.612499 16.191698,35.399055 
	C16.294941,34.830944 16.353107,34.659634 16.321323,34.232292 
	C16.184811,32.914978 16.138252,31.853691 16.055744,30.395559 
	C16.031788,26.203508 15.628843,22.353094 17.740826,18.426289 
	C17.972656,18.046120 17.979607,17.980234 18.012457,17.975973 
	C19.048553,17.336491 20.109182,16.794270 21.523869,16.114178 
	C52.560059,15.965289 83.149132,15.815447 113.737961,16.190575 
	C114.029594,16.194149 114.324791,15.930161 115.068672,15.767559 
	C116.690208,15.334329 117.902435,15.534134 119.499313,15.755930 
	C120.424271,16.291243 120.952271,16.611023 121.762863,17.057068 
	C122.223778,17.309296 122.402092,17.435257 122.829254,17.774117 
	C123.500679,18.289310 123.923264,18.591606 124.566216,19.034983 
	C126.171661,20.585709 125.460793,22.347282 125.463333,23.922405 
	C125.512749,54.559193 125.495674,85.196075 125.509216,115.832932 
	C125.510178,118.006454 125.565544,120.167679 124.241928,122.581383 
	C123.985893,123.001953 123.981186,122.984428 123.990356,122.984085 
	C123.843529,123.111565 123.687538,123.239388 123.243736,123.460388 
	C122.407806,123.813675 121.880241,124.105629 121.210480,124.729782 
	C120.981430,124.927406 121.026611,124.937622 121.008965,124.952606 
	C112.336235,125.715866 103.680901,124.869080 95.025246,124.904900 
	C94.353363,124.907677 93.550117,125.739525 92.466782,124.883865 
	C91.738976,124.920319 91.448128,124.897491 90.721771,124.961349 
	C70.441612,124.951294 50.596760,125.038010 30.294815,124.919281 
	C24.755718,125.195221 19.573658,125.797897 16.632160,119.559547 
	C16.268978,115.362793 15.858335,111.633240 15.973606,107.441101 
	C16.083954,103.983345 16.151560,100.963295 16.253727,97.492767 
	C16.859135,94.939560 17.084450,92.796623 17.077110,90.293343 
	C17.145237,89.555565 17.171896,89.146210 17.231993,88.431015 
	C18.218554,84.237068 19.626467,80.479088 20.796375,76.280449 
	C21.025988,75.973587 21.149286,75.530548 21.213684,75.309814 
	C22.243345,73.099518 23.858881,71.474014 24.671082,69.007385 
	C26.208437,67.065201 27.704378,65.510246 28.817120,63.244591 
	C29.156122,62.681557 29.335693,62.437366 29.783955,62.128593 
	C30.193644,61.769539 30.421833,61.543694 30.832520,61.159859 
	C30.998631,60.985317 31.008554,61.008636 30.996796,61.003876 
	C31.216864,60.781609 31.444233,60.559536 31.835524,60.164154 
	C32.003906,59.995415 32.004742,60.004982 31.999928,60.004452 
	C32.220478,59.779995 32.445065,59.555286 32.833027,59.157097 
	C32.997181,58.984386 33.007896,59.007843 32.995979,59.002876 
	C33.217949,58.781239 33.445950,58.558540 33.829781,58.153763 
	C33.991501,57.977711 34.006927,58.006927 33.992065,57.999687 
	C34.216789,57.781509 34.446842,57.560650 34.826729,57.151428 
	C34.986095,56.973000 35.004726,57.004639 34.988670,56.995731 
	C35.214935,56.781574 35.445683,56.564045 35.829391,56.162384 
	C35.993935,55.990532 36.000305,56.000610 35.995434,55.996834 
	C36.143612,55.842590 36.296658,55.692127 36.741165,55.404961 
	C37.032627,55.268250 37.480652,55.129406 37.705544,55.062893 
	C38.171143,54.778439 38.412819,54.561581 38.822456,54.168537 
	C38.989437,53.991264 38.999542,53.999542 38.995529,53.994061 
	C39.145645,53.838516 39.299774,53.688454 39.743439,53.395950 
	C40.032974,53.253510 40.491203,53.123856 40.722206,53.066101 
	C41.179882,52.776348 41.415504,52.553829 41.826622,52.163677 
	C41.993168,51.986565 42.001221,52.002201 41.993805,51.997017 
	C42.145145,51.838455 42.303902,51.685081 42.752579,51.371742 
	C45.450718,50.236115 47.858948,49.260452 50.577927,48.124481 
	C51.068989,47.825447 51.249290,47.686722 51.732849,47.391556 
	C52.441978,47.184040 52.847839,47.132969 53.558727,47.047298 
	C55.837250,47.120659 57.302437,45.408943 59.587479,45.501053 
	C61.199692,45.592991 62.408646,45.330250 63.758858,44.425537 
	C64.011971,44.237919 64.476143,44.146904 65.086609,44.072723 
	C67.009079,44.081924 68.282860,43.862762 69.956367,43.506897 
	C77.685379,43.516399 85.002487,43.330177 92.710114,43.989933 
	C93.892319,44.315697 94.666351,44.620983 95.732315,45.044189 
	C96.955391,45.643856 97.974045,45.417542 98.951370,45.529076 
	C106.320282,46.370052 107.026558,47.305462 105.819176,54.972752 
	C105.052681,59.840229 103.721161,64.583504 102.225632,69.740479 
	C101.999161,70.143394 101.925110,70.557823 101.871681,70.761429 
	C101.697678,71.163734 101.577103,71.362450 101.242218,71.836143 
	C101.027893,72.111130 100.931656,72.564423 100.864944,72.786308 
	C100.697433,73.173332 100.596649,73.338478 100.246292,73.651733 
	C94.747673,81.686615 89.571030,89.646126 80.041199,93.729095 
	C79.716141,94.173706 79.606636,94.338074 79.241379,94.651947 
	C78.985626,94.801453 78.557587,94.925018 78.339821,94.971909 
	C77.634827,95.420990 77.020439,95.484856 76.217758,95.850510 
	C75.991577,96.051498 76.035797,96.009705 76.047562,96.037766 
	C74.282585,96.867401 72.174034,96.416565 70.244629,97.821678 
	C70.005890,98.100281 70.043716,98.033852 70.076920,98.052773 
	C66.924110,98.737228 63.672478,98.807999 60.075821,99.279045 
	C58.454769,99.642975 57.272240,100.264389 55.604992,100.173553 
	C54.541920,100.541008 53.802010,100.496399 52.702629,100.488396 
	C51.173920,100.028381 50.006248,99.885406 48.470741,100.474274 
	C46.894238,100.471039 45.676685,100.579239 44.177422,100.177856 
	C43.498062,99.926216 43.107910,99.898224 42.427345,99.828674 
	C41.813732,99.683182 41.520554,99.523964 41.067253,99.143280 
	C40.607491,98.875969 40.389496,98.707870 40.132393,98.284668 
	C38.632992,96.442795 39.131161,94.611282 39.772545,92.380646 
	C39.998421,91.973808 40.022713,92.016777 39.998394,92.012573 
	C40.212460,91.786339 40.445492,91.558823 40.842175,91.149460 
	C41.011185,90.973091 41.026295,91.026474 40.999504,91.019264 
	C41.210556,90.788803 41.443386,90.560448 41.837776,90.147842 
	C42.004341,89.968704 42.014000,90.019997 41.990753,90.008133 
	C42.757248,89.297905 43.890800,89.154198 44.821709,88.115616 
	C45.103237,87.601891 45.255756,87.377602 45.665695,87.107559 
	C46.119610,86.791733 46.397827,86.581322 46.926643,86.285400 
	C47.170895,86.191498 47.537617,86.077820 47.723167,86.028595 
	C48.076630,85.841797 48.244545,85.704224 48.674660,85.373566 
	C51.464787,84.059448 53.430489,82.202225 55.632561,80.111626 
	C56.790821,79.954086 57.447826,79.386932 58.610733,78.991631 
	C61.314655,78.448708 62.940369,78.963806 62.907867,82.093246 
	C62.667637,82.759491 62.553577,83.019417 62.228424,83.649086 
	C62.017326,84.018837 61.999847,83.999695 62.009701,84.008072 
	C60.213535,84.989754 58.346931,85.914719 58.703186,88.704758 
	C59.099136,89.027710 59.281151,89.088074 59.743958,89.210808 
	C63.424484,90.162025 66.167068,87.677704 69.666481,87.318085 
	C71.098984,86.545349 72.215515,85.910912 73.619125,85.129776 
	C74.078560,84.839584 74.250908,84.696091 74.727051,84.408119 
	C75.030830,84.263634 75.504440,84.129005 75.742744,84.067184 
	C76.191940,83.768997 76.417992,83.548149 76.826157,83.174393 
	C76.993118,83.005974 76.990631,82.990562 76.998192,82.992249 
	C77.156113,82.841537 77.306465,82.689156 77.741577,82.388420 
	C78.026352,82.240059 78.485428,82.108833 78.715805,82.046234 
	C81.340454,80.735405 83.402313,79.138931 84.787544,76.318146 
	C85.000282,76.025536 84.979774,75.980537 85.003685,75.986832 
	C85.185097,75.828720 85.342598,75.664314 85.743286,75.260155 
	C85.986473,75.020393 85.967690,74.971687 85.993134,74.977486 
	C86.255829,74.763054 86.476402,74.527229 86.836105,74.090233 
	C87.081757,73.611198 87.249825,73.372932 87.693924,73.089935 
	C88.841888,72.375648 89.183464,71.348946 89.819359,70.138222 
	C90.307739,69.101807 90.621185,68.330299 91.064323,67.268684 
	C91.316139,66.795868 91.438255,66.613159 91.771156,66.176971 
	C91.981934,65.923508 91.978210,65.990974 91.944809,65.985893 
	C93.837860,64.238747 94.014557,61.775616 94.801872,59.186028 
	C95.012291,58.894646 95.091171,58.484386 95.140068,58.281307 
	C95.452187,57.203560 96.303810,56.374760 95.180000,55.212376 
	C94.798767,54.976822 94.634590,54.937782 94.225006,54.836742 
	C91.449593,54.404911 88.957306,53.811211 86.035370,53.500603 
	C82.634628,53.499905 79.615761,53.500050 76.235458,53.499985 
	C75.403862,53.500385 74.933716,53.498356 74.128731,53.447323 
	C73.572090,53.407875 73.350304,53.414337 72.801506,53.457157 
	C71.826180,53.503471 71.177002,53.486576 70.228600,53.663040 
	C69.926605,53.770138 69.529724,53.874992 69.327896,53.912296 
	C67.379440,55.337311 65.277115,53.751240 63.227089,54.846642 
	C62.985016,55.067036 62.995232,55.001968 63.026611,55.011971 
	C59.589928,56.316879 55.613663,56.067898 52.251160,58.758789 
	C51.985115,59.025883 51.972374,58.971329 51.999214,58.979347 
	C51.588490,59.423519 50.996799,59.488583 50.215187,59.825905 
	C49.987381,60.006958 49.982861,59.979904 49.995461,59.985252 
	C49.261620,60.711105 48.150558,60.835201 47.200119,61.791779 
	C46.984158,62.008297 46.979870,61.983402 46.991604,61.987595 
	C46.837933,62.123779 46.672531,62.255768 46.203346,62.479637 
	C44.911446,63.021931 44.193642,63.805786 43.225658,64.782310 
	C42.886566,65.309654 42.702961,65.562332 42.246147,65.883636 
	C41.808704,66.231781 41.570606,66.455879 41.167961,66.860870 
	C41.008621,67.047295 41.001816,66.991638 41.026669,67.004608 
	C39.660934,68.365112 38.087914,69.564491 37.197216,71.764496 
	C36.979076,72.033875 36.876015,72.518654 36.806717,72.756577 
	C36.643032,73.180176 36.548645,73.365860 36.215214,73.752762 
	C35.976173,73.953972 35.998039,74.000992 35.977783,73.984718 
	C35.042450,74.570824 34.373531,75.324913 34.184097,76.738251 
	C33.973568,76.972214 33.999577,77.002136 33.982761,76.990875 
	C30.102625,83.205322 28.321083,90.056801 27.777287,97.655540 
	C27.564562,98.472473 27.508844,98.946487 27.638609,99.778961 
	C27.747332,100.527245 27.760609,100.926857 27.749640,101.625603 
	C27.301311,103.400887 27.581503,104.912483 27.499538,106.723473 
	C27.500177,107.462219 27.466711,107.880432 27.418955,108.606125 
	C27.488466,109.120285 27.531479,109.323509 27.662004,109.825783 
z"/>
<path fill="#155838" opacity="1.000000" stroke="none" 
	d="
M28.609798,124.282974 
	C49.348820,124.103188 69.706932,124.101036 90.533859,124.094086 
	C91.169273,124.196671 91.335884,124.304047 91.752907,124.251160 
	C101.404312,124.336792 110.805290,124.582687 120.598801,124.898087 
	C119.769035,126.112854 118.229874,125.971916 116.746712,125.972794 
	C85.979134,125.991035 55.211555,126.002670 24.443983,125.990349 
	C23.462145,125.989952 22.480413,125.722214 21.165981,125.303802 
	C23.221666,123.838440 25.779171,124.851379 28.609798,124.282974 
z"/>
<path fill="#18623E" opacity="1.000000" stroke="none" 
	d="
M124.317810,122.784500 
	C124.840874,118.563301 124.981369,114.082489 124.970322,109.571014 
	C124.897301,79.743858 124.881516,49.916569 124.816833,19.632694 
	C126.734001,20.465595 125.990982,22.483528 125.992767,24.185741 
	C126.025215,55.116306 126.001617,86.046951 125.957710,116.977539 
	C125.954971,118.911499 126.483879,121.034218 124.317810,122.784500 
z"/>
<path fill="#145131" opacity="1.000000" stroke="none" 
	d="
M42.707607,26.283216 
	C43.759037,26.126261 44.508015,26.131554 45.631439,26.129822 
	C53.386616,26.941187 60.789581,26.315975 68.591339,26.293415 
	C70.392471,26.128744 71.782890,26.135073 73.590439,26.136715 
	C74.767738,26.653542 75.614143,26.487614 76.722549,26.286327 
	C79.041000,26.136353 81.082878,26.137939 83.562294,26.135929 
	C84.469650,26.475845 84.991325,26.526655 85.779892,26.271502 
	C88.053169,26.140680 90.089981,26.144123 92.563339,26.143158 
	C99.029419,26.952280 105.092392,26.248280 111.542976,26.736536 
	C112.134995,26.940973 112.317490,26.947348 112.773506,26.968048 
	C113.193733,27.187685 113.340431,27.392992 113.235336,27.880890 
	C89.335609,28.103470 65.687645,28.054279 42.039829,27.966427 
	C39.719196,27.957809 37.399445,27.711697 34.748806,27.401852 
	C34.986023,26.952639 35.553719,26.677393 36.566994,26.248985 
	C38.765137,26.905815 40.605381,26.363491 42.707607,26.283216 
z"/>
<path fill="#1B613D" opacity="1.000000" stroke="none" 
	d="
M119.586632,15.701674 
	C118.884949,16.003769 117.873619,16.036077 116.481728,16.067852 
	C114.353188,16.903467 112.492561,16.476202 110.691208,16.478046 
	C81.396492,16.508041 52.101738,16.502008 22.317921,16.487656 
	C21.520514,16.371719 21.212172,16.266617 20.968365,15.677153 
	C53.131699,15.152050 85.230499,15.109173 117.329308,15.085742 
	C117.978455,15.085268 118.627762,15.311447 119.586632,15.701674 
z"/>
<path fill="#005D2D" opacity="1.000000" stroke="none" 
	d="
M112.591576,113.790726 
	C111.128769,114.849571 109.146286,114.986969 107.146919,114.985085 
	C84.754822,114.963974 62.362728,114.937454 39.504807,114.890877 
	C39.544872,112.114349 41.692642,113.598656 42.964283,113.577751 
	C52.674561,113.418060 62.388294,113.536125 72.549820,113.322739 
	C73.447533,113.156219 73.896286,113.139496 74.681229,113.146370 
	C87.399635,113.949738 99.796837,113.236099 112.591576,113.790726 
z"/>
<path fill="#05793E" opacity="1.000000" stroke="none" 
	d="
M62.232018,83.197388 
	C61.270157,81.532509 60.196030,80.541229 58.302521,80.065720 
	C57.963379,77.605209 60.574173,77.881142 61.755295,76.217804 
	C61.996349,75.961098 62.020184,76.009308 61.993690,76.004723 
	C62.210934,75.786980 62.444675,75.563370 62.831779,75.149864 
	C62.995136,74.970421 63.004478,75.012321 62.987526,74.999100 
	C63.746819,74.307869 64.841293,74.160614 65.792160,73.199776 
	C66.003716,72.978569 66.018784,73.017944 65.999146,73.010300 
	C66.211685,72.786064 66.439331,72.564796 66.834488,72.174271 
	C67.006554,72.009689 66.999390,71.999390 67.004692,72.002777 
	C67.169861,71.840912 67.329720,71.675659 67.738144,71.271347 
	C67.986710,71.032288 67.978851,70.972504 68.008133,70.979660 
	C69.527977,70.411819 71.123718,69.374489 72.487839,70.962975 
	C73.228195,71.825104 72.546913,72.798416 71.419838,73.832428 
	C70.389664,74.932861 69.735542,75.720764 68.933708,76.779633 
	C68.669067,77.224472 68.552139,77.398346 68.220093,77.801384 
	C68.004974,78.030540 67.985008,77.985947 68.008202,77.993622 
	C67.787582,78.214470 67.553802,78.438141 67.166939,78.852020 
	C67.003822,79.031761 66.985565,78.985153 67.009094,78.993683 
	C66.788055,79.214226 66.554077,79.437355 66.167480,79.851006 
	C66.004257,80.030426 65.985893,79.985596 66.008560,79.994125 
	C65.787018,80.215027 65.553268,80.438362 65.168045,80.853203 
	C65.006104,81.033745 64.992294,80.987724 65.013184,80.999596 
	C64.415001,81.464653 63.661167,81.771454 63.184326,82.800331 
	C63.017296,83.040085 63.001724,82.996269 63.018211,83.012894 
	C62.849148,83.166588 62.663593,83.303658 62.232018,83.197388 
z"/>
<path fill="#0F663C" opacity="1.000000" stroke="none" 
	d="
M102.294334,69.917053 
	C102.747589,65.939171 103.527168,61.740208 104.238022,57.529648 
	C105.755089,48.543613 105.497406,48.151417 96.362030,45.298409 
	C107.188248,44.619156 108.851189,46.729160 106.192566,57.867340 
	C105.232948,61.887596 104.603958,65.996658 102.294334,69.917053 
z"/>
<path fill="#105431" opacity="1.000000" stroke="none" 
	d="
M72.530746,113.122269 
	C66.116318,114.786606 59.126839,113.686028 52.192589,113.988846 
	C48.064228,114.169121 43.897186,113.595634 39.426277,114.752304 
	C37.623287,114.869774 36.207592,114.870201 34.368252,114.870110 
	C32.564442,114.136658 31.055441,114.698540 29.324457,114.234909 
	C29.020853,114.029716 28.972853,113.533089 28.965496,113.283638 
	C43.326328,113.046661 57.694515,113.059128 72.530746,113.122269 
z"/>
<path fill="#0C6238" opacity="1.000000" stroke="none" 
	d="
M27.249954,99.229507 
	C27.434477,91.306282 28.231194,83.696724 33.693909,77.177986 
	C31.566086,83.965981 29.100563,90.934593 27.998413,98.683731 
	C27.682249,99.168129 27.558439,99.292931 27.249954,99.229507 
z"/>
<path fill="#105431" opacity="1.000000" stroke="none" 
	d="
M113.002396,113.769463 
	C100.605103,113.600838 88.183517,114.767914 75.411224,113.287430 
	C87.360809,113.100502 99.704193,113.031044 112.515396,112.962204 
	C112.990631,113.142036 112.998039,113.321243 113.002396,113.769463 
z"/>
<path fill="#165D38" opacity="1.000000" stroke="none" 
	d="
M114.901138,32.565094 
	C114.717422,43.976772 115.736366,55.140049 114.402969,66.660797 
	C114.231087,55.991817 114.186188,44.924343 114.205185,33.386742 
	C114.398148,32.707741 114.527206,32.498871 114.901138,32.565094 
z"/>
<path fill="#0F663C" opacity="1.000000" stroke="none" 
	d="
M92.810341,43.701912 
	C85.386490,44.018406 77.654686,44.026405 69.453583,44.035507 
	C68.106934,44.781082 67.059387,44.412979 65.722107,44.353065 
	C65.365639,44.225014 65.146881,44.160316 65.043983,44.110146 
	C67.804184,42.003109 71.062622,43.085915 74.115791,43.080257 
	C80.242363,43.068913 86.388466,42.544582 92.810341,43.701912 
z"/>
<path fill="#066537" opacity="1.000000" stroke="none" 
	d="
M28.563999,124.082787 
	C26.633497,125.000435 24.164515,125.002983 21.265255,125.023590 
	C18.112511,124.276634 16.447954,122.594856 16.180346,119.353073 
	C16.327362,118.776024 16.444660,118.555336 16.766869,118.648575 
	C19.511511,123.250908 23.542898,124.272141 28.563999,124.082787 
z"/>
<path fill="#076033" opacity="1.000000" stroke="none" 
	d="
M17.655220,18.221420 
	C17.419895,21.785826 16.867132,25.525534 16.167084,29.631977 
	C14.092555,25.862541 14.874484,22.034130 17.655220,18.221420 
z"/>
<path fill="#026031" opacity="1.000000" stroke="none" 
	d="
M16.975359,118.512100 
	C16.971781,118.962509 16.591005,118.981773 16.400536,118.989243 
	C15.390787,115.223152 14.359199,111.463417 15.740548,107.283875 
	C17.486328,110.589462 16.826162,114.360954 16.975359,118.512100 
z"/>
<path fill="#0E5E36" opacity="1.000000" stroke="none" 
	d="
M20.734362,76.188370 
	C20.486607,80.008881 19.722059,83.980087 17.491463,87.861771 
	C16.760796,83.793976 18.742189,80.136620 20.734362,76.188370 
z"/>
<path fill="#16693F" opacity="1.000000" stroke="none" 
	d="
M52.359596,58.972450 
	C54.378834,55.082600 58.526920,55.647007 62.639030,55.032234 
	C59.926304,57.141216 56.130608,57.501381 52.359596,58.972450 
z"/>
<path fill="#105431" opacity="1.000000" stroke="none" 
	d="
M114.202751,82.366211 
	C115.582314,87.337151 115.298378,92.805046 114.406219,98.676239 
	C114.224579,93.660751 114.174995,88.249466 114.202751,82.366211 
z"/>
<path fill="#16693F" opacity="1.000000" stroke="none" 
	d="
M58.833073,99.310425 
	C62.379223,97.890221 65.797905,98.024544 69.658279,98.062973 
	C66.882439,99.509872 63.476669,100.030952 59.553764,100.058708 
	C58.951019,99.912445 58.766052,99.747849 58.833073,99.310425 
z"/>
<path fill="#115F3A" opacity="1.000000" stroke="none" 
	d="
M71.374481,74.045105 
	C71.222992,72.341652 70.381203,71.354622 68.326111,71.046822 
	C69.584564,69.692070 71.320969,68.224495 73.121155,70.193832 
	C74.675301,71.894005 73.458542,73.166191 71.374481,74.045105 
z"/>
<path fill="#0E683C" opacity="1.000000" stroke="none" 
	d="
M84.701813,76.161499 
	C84.495972,79.143036 82.713219,81.079193 79.293961,81.904060 
	C80.765236,80.088249 82.584282,78.192856 84.701813,76.161499 
z"/>
<path fill="#0F663C" opacity="1.000000" stroke="none" 
	d="
M28.746805,63.125404 
	C28.638016,65.288857 27.639549,67.252411 25.430738,68.847939 
	C24.989082,69.265587 24.813164,69.494087 24.407345,69.356178 
	C24.838444,66.515228 26.532125,64.811806 28.746805,63.125404 
z"/>
<path fill="#0E683C" opacity="1.000000" stroke="none" 
	d="
M69.586555,87.123932 
	C67.117111,88.862831 64.180756,90.257210 60.365242,89.367661 
	C63.164997,88.891220 65.909485,86.864227 69.586555,87.123932 
z"/>
<path fill="#16693F" opacity="1.000000" stroke="none" 
	d="
M44.194756,100.257607 
	C45.310387,99.951927 46.732552,99.949631 48.579334,99.949814 
	C49.695507,99.402100 50.502441,99.502785 51.646118,99.746964 
	C52.747208,99.946495 53.501274,99.944527 54.632370,99.943291 
	C55.784847,99.394211 56.517609,99.440163 57.098408,100.499374 
	C52.823761,100.922173 48.644325,101.417381 44.194756,100.257607 
z"/>
<path fill="#216B45" opacity="1.000000" stroke="none" 
	d="
M73.728447,52.773880 
	C77.664482,52.960640 81.348404,52.983444 85.489822,53.020554 
	C86.218719,53.153721 86.490128,53.272587 86.360184,53.582352 
	C81.941200,53.837261 77.923592,53.901276 73.444458,53.914314 
	C72.745338,53.716721 72.507744,53.570099 72.635750,53.219215 
	C73.001358,53.014957 72.994087,52.994213 72.995193,52.983280 
	C73.156303,52.851540 73.316315,52.730728 73.728447,52.773880 
z"/>
<path fill="#0E5E36" opacity="1.000000" stroke="none" 
	d="
M16.846096,90.261749 
	C17.957315,92.205452 17.701344,94.362846 16.456844,96.750122 
	C16.025858,94.865318 15.731325,92.686935 16.846096,90.261749 
z"/>
<path fill="#0E5E36" opacity="1.000000" stroke="none" 
	d="
M23.993732,69.282425 
	C24.177444,68.989769 24.669802,69.012291 24.917402,69.024689 
	C24.591179,71.252815 23.649668,73.251244 21.542984,74.903351 
	C21.109896,72.786308 22.425041,71.164665 23.993732,69.282425 
z"/>
<path fill="#115F3A" opacity="1.000000" stroke="none" 
	d="
M61.661118,76.030624 
	C60.823345,77.165627 59.650333,78.370148 58.230812,79.777153 
	C57.430855,80.002106 56.877411,80.024574 56.119968,79.993446 
	C57.254692,78.005371 59.324478,77.100929 61.661118,76.030624 
z"/>
<path fill="#0C6238" opacity="1.000000" stroke="none" 
	d="
M37.271729,71.873291 
	C37.323250,69.865982 38.313961,68.165619 40.736637,67.145317 
	C40.855404,69.300285 38.955185,70.317329 37.271729,71.873291 
z"/>
<path fill="#0E683C" opacity="1.000000" stroke="none" 
	d="
M58.976929,88.642014 
	C57.054508,85.986809 59.204494,85.065994 61.702034,84.088531 
	C61.025284,85.449860 60.031010,86.883270 58.976929,88.642014 
z"/>
<path fill="#0E683C" opacity="1.000000" stroke="none" 
	d="
M94.729027,59.111870 
	C94.826439,61.368553 94.534508,63.801693 92.183395,65.764404 
	C92.756203,63.763573 93.600983,61.546333 94.729027,59.111870 
z"/>
<path fill="#165D38" opacity="1.000000" stroke="none" 
	d="
M26.659718,38.306595 
	C26.653505,36.244102 26.528576,34.480644 26.407154,32.336014 
	C26.613867,31.547544 26.942101,31.364714 27.614931,31.631935 
	C27.860407,33.962231 27.886316,36.066933 27.837425,38.616676 
	C27.605762,39.208000 27.448898,39.354286 27.000925,39.363564 
	C26.653547,39.019581 26.597275,38.812603 26.659718,38.306595 
z"/>
<path fill="#0C7241" opacity="1.000000" stroke="none" 
	d="
M86.353897,53.874336 
	C85.958817,53.773247 85.953644,53.403717 85.950478,53.219284 
	C88.495369,53.057465 90.980568,53.402805 93.652191,54.623280 
	C91.501129,55.125698 89.057411,55.162472 86.353897,53.874336 
z"/>
<path fill="#16693F" opacity="1.000000" stroke="none" 
	d="
M60.402519,45.813210 
	C58.191765,46.481495 56.452740,47.413872 54.165798,47.061947 
	C55.349983,45.455879 57.188396,44.886105 59.672844,45.130531 
	C60.293472,45.331635 60.538429,45.476242 60.402519,45.813210 
z"/>
<path fill="#16693F" opacity="1.000000" stroke="none" 
	d="
M39.719452,92.166809 
	C40.013424,93.721352 40.028427,95.468903 40.042534,97.656494 
	C37.129398,96.468475 38.206650,94.422348 39.719452,92.166809 
z"/>
<path fill="#0C7241" opacity="1.000000" stroke="none" 
	d="
M70.377701,98.066879 
	C71.385307,96.431381 73.258202,96.043434 75.674103,96.065430 
	C74.476898,97.227699 72.666824,97.775299 70.377701,98.066879 
z"/>
<path fill="#13633C" opacity="1.000000" stroke="none" 
	d="
M19.125473,56.312859 
	C20.378902,56.001534 21.774260,55.990955 23.588486,55.985992 
	C22.706665,58.327339 21.132172,58.576515 19.125473,56.312859 
z"/>
<path fill="#155838" opacity="1.000000" stroke="none" 
	d="
M26.741566,108.272522 
	C27.084661,106.236664 27.275490,104.444984 27.595856,102.289017 
	C27.785366,104.355621 27.845337,106.786507 27.827412,109.671112 
	C27.543953,109.887634 27.354605,109.638138 27.052841,109.180557 
	C26.812571,108.828751 26.700933,108.672729 26.741566,108.272522 
z"/>
<path fill="#105431" opacity="1.000000" stroke="none" 
	d="
M114.203979,107.202759 
	C114.284409,106.807938 114.687401,106.897697 114.884369,106.959503 
	C115.184059,107.172844 115.286781,107.324364 115.260178,107.718117 
	C115.008369,109.639336 114.887413,111.318871 113.227524,112.769470 
	C113.347580,111.195137 113.735565,109.396362 114.203979,107.202759 
z"/>
<path fill="#0C6238" opacity="1.000000" stroke="none" 
	d="
M43.307579,64.957733 
	C43.514530,63.826550 44.299438,62.889355 45.722641,62.130592 
	C46.147259,62.173599 46.295231,62.361847 46.241394,62.847191 
	C45.496059,64.096909 44.663689,64.652306 43.307579,64.957733 
z"/>
<path fill="#16693F" opacity="1.000000" stroke="none" 
	d="
M63.390720,55.052380 
	C64.581627,53.645454 66.533852,53.910854 68.778938,53.934227 
	C67.609589,55.586143 65.598190,54.798531 63.390720,55.052380 
z"/>
<path fill="#076033" opacity="1.000000" stroke="none" 
	d="
M20.738834,15.267498 
	C21.032898,15.192789 21.028955,15.577364 21.025085,15.769623 
	C21.249596,16.135237 21.477974,16.308592 21.355770,16.731066 
	C20.224348,17.275667 19.443510,17.571152 18.353991,17.919174 
	C18.845129,17.095211 19.644951,16.218710 20.738834,15.267498 
z"/>
<path fill="#007138" opacity="1.000000" stroke="none" 
	d="
M57.296646,100.919113 
	C56.498798,100.651337 56.007069,100.405342 55.262371,100.051682 
	C56.132652,99.661057 57.255901,99.378090 58.732109,99.066360 
	C59.092262,99.211220 59.099464,99.384834 59.121326,99.817749 
	C58.624912,100.364998 58.113838,100.652946 57.296646,100.919113 
z"/>
<path fill="#007138" opacity="1.000000" stroke="none" 
	d="
M60.341328,45.958237 
	C60.021660,46.005569 60.033817,45.596245 60.041168,45.391632 
	C61.140163,44.841610 62.231804,44.496193 63.667709,44.194347 
	C63.078564,45.163296 61.970051,45.737946 60.341328,45.958237 
z"/>
<path fill="#026031" opacity="1.000000" stroke="none" 
	d="
M27.882895,31.577896 
	C27.515253,31.886087 27.195713,31.910879 26.643272,31.943369 
	C26.777365,31.079891 27.144064,30.204945 27.721405,29.123661 
	C28.110277,29.112202 28.288507,29.307083 28.247963,29.832211 
	C27.996555,30.541059 27.963923,30.919662 27.882895,31.577896 
z"/>
<path fill="#0E683C" opacity="1.000000" stroke="none" 
	d="
M32.856628,40.709770 
	C32.197346,41.013603 31.346361,41.080620 30.247375,41.067024 
	C30.718704,39.936943 31.655399,40.015892 32.856628,40.709770 
z"/>
<path fill="#0E683C" opacity="1.000000" stroke="none" 
	d="
M35.321671,44.887730 
	C35.056709,43.941040 35.080551,42.849194 35.072281,41.488571 
	C38.068676,41.934555 36.887794,43.330757 35.321671,44.887730 
z"/>
<path fill="#115F3A" opacity="1.000000" stroke="none" 
	d="
M65.683945,73.017731 
	C65.190880,73.586716 64.378044,74.194862 63.267899,74.894455 
	C63.469551,73.972015 64.198250,73.243195 65.683945,73.017731 
z"/>
<path fill="#16693F" opacity="1.000000" stroke="none" 
	d="
M47.306885,61.972237 
	C47.791904,61.392120 48.599655,60.775944 49.707733,60.075188 
	C49.531883,61.026218 48.838902,61.796787 47.306885,61.972237 
z"/>
<path fill="#0E683C" opacity="1.000000" stroke="none" 
	d="
M26.696213,38.780682 
	C26.929195,38.997433 27.345819,39.031113 27.554224,39.046413 
	C27.841736,39.486042 27.920841,39.910366 28.038513,40.656910 
	C27.110241,40.886772 26.494007,40.357307 26.104406,39.243454 
	C26.175711,38.875942 26.319471,38.719936 26.696213,38.780682 
z"/>
<path fill="#0E683C" opacity="1.000000" stroke="none" 
	d="
M94.980423,55.398975 
	C96.054359,55.736191 96.131439,56.645084 95.324799,57.885620 
	C95.125275,57.312847 95.061584,56.547470 94.980423,55.398975 
z"/>
<path fill="#086F3B" opacity="1.000000" stroke="none" 
	d="
M115.175842,32.618179 
	C115.146011,32.840179 114.707626,32.879852 114.488358,32.898232 
	C114.254333,32.170460 114.239586,31.424314 114.284668,30.307934 
	C115.058617,30.607599 115.320946,31.435753 115.175842,32.618179 
z"/>
<path fill="#16693F" opacity="1.000000" stroke="none" 
	d="
M44.703838,87.943802 
	C44.208420,88.520020 43.390720,89.162605 42.270264,89.900726 
	C42.451595,88.944557 43.202732,88.217438 44.703838,87.943802 
z"/>
<path fill="#0E683C" opacity="1.000000" stroke="none" 
	d="
M89.711212,70.038773 
	C89.459885,70.778580 88.925468,71.683846 88.141396,72.789566 
	C88.014603,71.846741 88.547615,70.929665 89.711212,70.038773 
z"/>
<path fill="#145131" opacity="1.000000" stroke="none" 
	d="
M30.772812,26.316086 
	C31.640804,26.416859 32.226299,26.631838 33.229240,27.072910 
	C32.645370,27.502012 31.644056,27.705021 30.323616,27.875473 
	C29.518570,27.149231 29.947754,26.770264 30.772812,26.316086 
z"/>
<path fill="#086F3B" opacity="1.000000" stroke="none" 
	d="
M113.123932,28.355350 
	C112.994293,27.966665 113.005051,27.769852 113.031418,27.277710 
	C113.400345,27.514395 113.753662,28.046413 114.105614,28.777302 
	C113.781586,28.916748 113.501617,28.773762 113.123932,28.355350 
z"/>
<path fill="#066537" opacity="1.000000" stroke="none" 
	d="
M121.259651,124.913101 
	C121.461922,124.370735 121.942406,123.814056 122.645462,123.090561 
	C123.062614,123.122864 123.257187,123.321991 123.222702,123.870323 
	C122.508392,124.445953 122.023132,124.672379 121.259651,124.913101 
z"/>
<path fill="#0C6238" opacity="1.000000" stroke="none" 
	d="
M34.233265,76.809830 
	C34.472809,76.096451 34.972050,75.220680 35.714409,74.156677 
	C35.469341,74.861443 34.981152,75.754448 34.233265,76.809830 
z"/>
<path fill="#0E683C" opacity="1.000000" stroke="none" 
	d="
M63.283760,82.916641 
	C63.529819,82.471878 64.042343,81.903671 64.794472,81.173462 
	C64.539459,81.605385 64.044846,82.199295 63.283760,82.916641 
z"/>
<path fill="#16693F" opacity="1.000000" stroke="none" 
	d="
M72.688065,53.057495 
	C73.001358,53.014957 72.991295,53.439140 72.987122,53.651241 
	C72.218102,53.876396 71.453262,53.889450 70.307510,53.836319 
	C70.742661,53.546768 71.558723,53.323402 72.688065,53.057495 
z"/>
<path fill="#026031" opacity="1.000000" stroke="none" 
	d="
M30.809105,26.323942 
	C30.792728,26.611189 30.530148,27.020496 30.136028,27.636360 
	C30.004488,27.842916 29.521805,27.938017 29.277199,27.960236 
	C29.542696,27.470306 30.052797,26.958155 30.809105,26.323942 
z"/>
<path fill="#0C7241" opacity="1.000000" stroke="none" 
	d="
M76.302078,96.014603 
	C76.517578,95.779823 77.043579,95.508141 77.845810,95.127625 
	C77.618904,95.338432 77.115746,95.658066 76.302078,96.014603 
z"/>
<path fill="#16693F" opacity="1.000000" stroke="none" 
	d="
M50.286385,59.968315 
	C50.486305,59.729816 50.985233,59.452682 51.755108,59.081455 
	C51.545834,59.301468 51.065613,59.615570 50.286385,59.968315 
z"/>
<path fill="#165D38" opacity="1.000000" stroke="none" 
	d="
M28.262070,29.958126 
	C28.013948,29.955458 27.998713,29.748461 27.957762,29.229393 
	C28.148382,28.687441 28.377754,28.471399 28.814068,28.133209 
	C28.836967,28.582743 28.665960,29.168268 28.262070,29.958126 
z"/>
<path fill="#155838" opacity="1.000000" stroke="none" 
	d="
M28.823593,112.835419 
	C28.634233,112.794441 28.326303,112.530365 27.980595,112.111504 
	C28.196886,112.175247 28.450954,112.393784 28.823593,112.835419 
z"/>
<path fill="#0A7841" opacity="1.000000" stroke="none" 
	d="
M122.971161,17.776688 
	C122.837486,17.823053 122.604660,17.648720 122.212524,17.323673 
	C122.394943,17.147335 122.667870,17.275009 122.971161,17.776688 
z"/>
<path fill="#0E683C" opacity="1.000000" stroke="none" 
	d="
M68.204803,77.927979 
	C68.151031,77.791496 68.317238,77.567406 68.644791,77.204422 
	C68.803513,77.380028 68.676384,77.638306 68.204803,77.927979 
z"/>
<path fill="#0E683C" opacity="1.000000" stroke="none" 
	d="
M67.231400,78.923080 
	C67.201439,78.773720 67.419891,78.534729 67.845291,78.158035 
	C67.840591,78.272324 67.649788,78.543358 67.231400,78.923080 
z"/>
<path fill="#0E683C" opacity="1.000000" stroke="none" 
	d="
M66.231720,79.922035 
	C66.201790,79.772568 66.420326,79.533943 66.846245,79.158386 
	C66.841476,79.272690 66.650330,79.543167 66.231720,79.922035 
z"/>
<path fill="#0E683C" opacity="1.000000" stroke="none" 
	d="
M65.232910,80.924271 
	C65.202637,80.775146 65.420357,80.535820 65.845253,80.159210 
	C65.840729,80.273376 65.650223,80.544090 65.232910,80.924271 
z"/>
<path fill="#18623E" opacity="1.000000" stroke="none" 
	d="
M123.216278,124.060219 
	C122.973694,124.003731 122.953735,123.787926 122.900909,123.247925 
	C123.056923,122.927856 123.245811,122.931992 123.717117,122.959930 
	C123.812653,123.289467 123.625771,123.595184 123.216278,124.060219 
z"/>
<path fill="#0E683C" opacity="1.000000" stroke="none" 
	d="
M77.797516,82.267303 
	C77.825752,82.441559 77.608078,82.622513 77.189545,82.888428 
	C77.090248,82.677818 77.277885,82.444695 77.797516,82.267303 
z"/>
<path fill="#13633C" opacity="1.000000" stroke="none" 
	d="
M6.814928,42.065689 
	C6.989755,42.147354 6.994163,42.331665 6.996462,42.793087 
	C6.662113,42.853218 6.254976,42.665298 6.814928,42.065689 
z"/>
<path fill="#0E683C" opacity="1.000000" stroke="none" 
	d="
M61.988640,83.220413 
	C62.160767,82.965614 62.335541,82.977165 62.772507,83.009125 
	C62.943905,83.362854 62.756355,83.627663 62.244690,83.921387 
	C62.008648,83.841484 61.999966,83.664124 61.988640,83.220413 
z"/>
<path fill="#0E683C" opacity="1.000000" stroke="none" 
	d="
M76.766731,83.106003 
	C76.810562,83.267929 76.599220,83.504120 76.170067,83.859955 
	C76.073555,83.673203 76.259987,83.406761 76.766731,83.106003 
z"/>
<path fill="#0E683C" opacity="1.000000" stroke="none" 
	d="
M74.795181,84.289612 
	C74.810760,84.466698 74.570572,84.642258 74.108246,84.886688 
	C74.047485,84.685707 74.265259,84.463211 74.795181,84.289612 
z"/>
<path fill="#16693F" opacity="1.000000" stroke="none" 
	d="
M48.707291,85.219238 
	C48.717808,85.369499 48.494286,85.553062 48.087509,85.855286 
	C48.011318,85.670212 48.200985,85.429749 48.707291,85.219238 
z"/>
<path fill="#16693F" opacity="1.000000" stroke="none" 
	d="
M46.893547,86.214890 
	C46.884514,86.386703 46.598129,86.581909 46.079739,86.893814 
	C46.103882,86.753105 46.360039,86.495689 46.893547,86.214890 
z"/>
<path fill="#13633C" opacity="1.000000" stroke="none" 
	d="
M7.805154,41.204964 
	C7.829192,41.374706 7.597314,41.575027 7.154471,41.878639 
	C7.061237,41.670155 7.263148,41.421360 7.805154,41.204964 
z"/>
<path fill="#105431" opacity="1.000000" stroke="none" 
	d="
M114.230583,102.199333 
	C114.420433,102.187271 114.461456,102.478806 114.325256,102.924294 
	C114.239235,102.870247 114.217140,102.678474 114.230583,102.199333 
z"/>
<path fill="#16693F" opacity="1.000000" stroke="none" 
	d="
M41.773880,90.077347 
	C41.815987,90.238266 41.599751,90.483208 41.164177,90.857803 
	C41.162949,90.736702 41.353180,90.461349 41.773880,90.077347 
z"/>
<path fill="#16693F" opacity="1.000000" stroke="none" 
	d="
M40.779850,91.079712 
	C40.821003,91.240959 40.603359,91.484261 40.166164,91.855682 
	C40.165558,91.734352 40.357037,91.460342 40.779850,91.079712 
z"/>
<path fill="#16693F" opacity="1.000000" stroke="none" 
	d="
M41.022533,99.200455 
	C41.177551,99.122124 41.463425,99.291702 41.935837,99.636475 
	C41.813934,99.666023 41.490940,99.544922 41.022533,99.200455 
z"/>
<path fill="#155838" opacity="1.000000" stroke="none" 
	d="
M27.162979,99.229614 
	C27.065275,99.041283 27.435654,99.040665 27.620857,99.041992 
	C27.813950,99.224922 27.821838,99.406517 27.781893,99.857864 
	C27.553785,99.906059 27.395996,99.669495 27.162979,99.229614 
z"/>
<path fill="#0C7241" opacity="1.000000" stroke="none" 
	d="
M79.204109,94.772514 
	C79.155937,94.608704 79.337608,94.427315 79.678139,94.133324 
	C79.850609,94.341499 79.716255,94.586243 79.204109,94.772514 
z"/>
<path fill="#115F3A" opacity="1.000000" stroke="none" 
	d="
M62.766991,75.078201 
	C62.807827,75.237495 62.592262,75.479401 62.157822,75.848137 
	C62.157742,75.728745 62.348293,75.457359 62.766991,75.078201 
z"/>
<path fill="#076033" opacity="1.000000" stroke="none" 
	d="
M16.197525,34.232948 
	C16.358332,34.222733 16.393822,34.481941 16.287306,34.878071 
	C16.212408,34.831375 16.188044,34.660500 16.197525,34.232948 
z"/>
<path fill="#13633C" opacity="1.000000" stroke="none" 
	d="
M13.099912,50.227333 
	C13.266088,50.179161 13.504984,50.390583 13.859923,50.825912 
	C13.669491,50.925846 13.401712,50.738213 13.099912,50.227333 
z"/>
<path fill="#0F663C" opacity="1.000000" stroke="none" 
	d="
M33.766491,58.084343 
	C33.812218,58.245403 33.602406,58.486534 33.173065,58.849510 
	C33.074734,58.663219 33.260540,58.394241 33.766491,58.084343 
z"/>
<path fill="#0F663C" opacity="1.000000" stroke="none" 
	d="
M34.756245,57.073540 
	C34.805607,57.239864 34.595215,57.480587 34.166061,57.843811 
	C34.160271,57.719658 34.343334,57.446869 34.756245,57.073540 
z"/>
<path fill="#0F663C" opacity="1.000000" stroke="none" 
	d="
M35.762421,56.084732 
	C35.809696,56.252716 35.596249,56.488453 35.163101,56.842285 
	C35.158710,56.717525 35.344807,56.448227 35.762421,56.084732 
z"/>
<path fill="#13633C" opacity="1.000000" stroke="none" 
	d="
M12.053188,49.212471 
	C12.221177,49.153549 12.477921,49.359455 12.850349,49.804699 
	C12.725574,49.812439 12.450875,49.623520 12.053188,49.212471 
z"/>
<path fill="#0E683C" opacity="1.000000" stroke="none" 
	d="
M30.235363,49.919609 
	C30.190369,49.755836 30.403458,49.517147 30.833527,49.154716 
	C30.836866,49.277264 30.651180,49.548500 30.235363,49.919609 
z"/>
<path fill="#0F663C" opacity="1.000000" stroke="none" 
	d="
M36.806515,55.296463 
	C36.829720,55.468277 36.607719,55.644215 36.178596,55.894562 
	C36.097412,55.691078 36.294025,55.468288 36.806515,55.296463 
z"/>
<path fill="#13633C" opacity="1.000000" stroke="none" 
	d="
M24.218527,55.905636 
	C24.167833,55.737442 24.379265,55.495380 24.815689,55.135281 
	C24.821348,55.260227 24.634672,55.531738 24.218527,55.905636 
z"/>
<path fill="#13633C" opacity="1.000000" stroke="none" 
	d="
M18.084106,55.229912 
	C18.258553,55.175610 18.498354,55.387794 18.853619,55.825321 
	C18.724615,55.833427 18.451406,55.648674 18.084106,55.229912 
z"/>
<path fill="#0F663C" opacity="1.000000" stroke="none" 
	d="
M38.755219,54.089218 
	C38.799442,54.258831 38.578796,54.498135 38.128975,54.852783 
	C38.127293,54.726643 38.324146,54.456905 38.755219,54.089218 
z"/>
<path fill="#13633C" opacity="1.000000" stroke="none" 
	d="
M25.218170,54.905380 
	C25.167938,54.737545 25.379608,54.495529 25.816246,54.135372 
	C25.821619,54.260090 25.634575,54.531410 25.218170,54.905380 
z"/>
<path fill="#13633C" opacity="1.000000" stroke="none" 
	d="
M17.104813,54.217468 
	C17.275515,54.165817 17.513849,54.377247 17.862854,54.816658 
	C17.667580,54.920753 17.400551,54.732723 17.104813,54.217468 
z"/>
<path fill="#0F663C" opacity="1.000000" stroke="none" 
	d="
M32.771729,59.089539 
	C32.818565,59.251305 32.609898,59.492188 32.183144,59.855480 
	C32.081161,59.667656 32.264885,59.397915 32.771729,59.089539 
z"/>
<path fill="#0E683C" opacity="1.000000" stroke="none" 
	d="
M29.236357,50.932678 
	C29.192236,50.772156 29.404116,50.528866 29.831663,50.156868 
	C29.834890,50.278168 29.649899,50.552086 29.236357,50.932678 
z"/>
<path fill="#13633C" opacity="1.000000" stroke="none" 
	d="
M14.088118,51.223888 
	C14.253707,51.175468 14.496466,51.387455 14.857970,51.824654 
	C14.734680,51.828777 14.464204,51.640251 14.088118,51.223888 
z"/>
<path fill="#0F663C" opacity="1.000000" stroke="none" 
	d="
M39.805374,53.282146 
	C39.829212,53.454163 39.607224,53.632065 39.179264,53.887901 
	C39.093212,53.681618 39.288628,53.455685 39.805374,53.282146 
z"/>
<path fill="#13633C" opacity="1.000000" stroke="none" 
	d="
M26.219418,53.907360 
	C26.174847,53.740452 26.392950,53.500858 26.839333,53.146004 
	C26.840740,53.269863 26.645569,53.537846 26.219418,53.907360 
z"/>
<path fill="#13633C" opacity="1.000000" stroke="none" 
	d="
M16.099598,53.214722 
	C16.265566,53.162312 16.508387,53.369019 16.866196,53.801918 
	C16.676985,53.903828 16.408741,53.719070 16.099598,53.214722 
z"/>
<path fill="#0F663C" opacity="1.000000" stroke="none" 
	d="
M41.763718,52.091995 
	C41.806858,52.255695 41.590187,52.497643 41.148182,52.860374 
	C41.146893,52.738041 41.340580,52.467731 41.763718,52.091995 
z"/>
<path fill="#13633C" opacity="1.000000" stroke="none" 
	d="
M27.247156,52.947159 
	C27.189976,52.764755 27.407913,52.521191 27.849688,52.153435 
	C27.860249,52.288410 27.676498,52.573997 27.247156,52.947159 
z"/>
<path fill="#13633C" opacity="1.000000" stroke="none" 
	d="
M15.089142,52.222862 
	C15.255349,52.171982 15.499021,52.381424 15.861876,52.815315 
	C15.738089,52.821068 15.466604,52.635536 15.089142,52.222862 
z"/>
<path fill="#0F663C" opacity="1.000000" stroke="none" 
	d="
M42.808178,51.245583 
	C42.834438,51.419682 42.609169,51.606861 42.176537,51.882576 
	C42.080334,51.670383 42.276157,51.432899 42.808178,51.245583 
z"/>
<path fill="#13633C" opacity="1.000000" stroke="none" 
	d="
M9.106844,46.214809 
	C9.273715,46.165550 9.514214,46.377136 9.866278,46.818367 
	C9.677367,46.913425 9.411577,46.722637 9.106844,46.214809 
z"/>
<path fill="#13633C" opacity="1.000000" stroke="none" 
	d="
M8.118075,45.211678 
	C8.286544,45.162338 8.521533,45.373123 8.869627,45.806248 
	C8.674881,45.911915 8.408835,45.726318 8.118075,45.211678 
z"/>
<path fill="#0E683C" opacity="1.000000" stroke="none" 
	d="
M85.774078,75.124542 
	C85.820137,75.279366 85.621658,75.510757 85.209312,75.853859 
	C85.118698,75.677582 85.296730,75.422768 85.774078,75.124542 
z"/>
<path fill="#13633C" opacity="1.000000" stroke="none" 
	d="
M28.237909,51.936157 
	C28.193151,51.769600 28.413191,51.523746 28.860035,51.152809 
	C28.861416,51.276615 28.666704,51.552994 28.237909,51.936157 
z"/>
<path fill="#0E683C" opacity="1.000000" stroke="none" 
	d="
M86.770752,74.026421 
	C86.822128,74.183876 86.620201,74.437538 86.202377,74.824455 
	C86.195580,74.704918 86.372574,74.426552 86.770752,74.026421 
z"/>
<path fill="#0F663C" opacity="1.000000" stroke="none" 
	d="
M100.201477,73.755226 
	C100.153603,73.603325 100.324974,73.420364 100.654533,73.129585 
	C100.804817,73.318932 100.674149,73.553062 100.201477,73.755226 
z"/>
<path fill="#0C6238" opacity="1.000000" stroke="none" 
	d="
M36.170902,73.854752 
	C36.100082,73.707581 36.256218,73.483665 36.590996,73.138351 
	C36.743748,73.311813 36.619820,73.565498 36.170902,73.854752 
z"/>
<path fill="#115F3A" opacity="1.000000" stroke="none" 
	d="
M66.783821,72.115265 
	C66.822746,72.272850 66.608635,72.508476 66.171860,72.859612 
	C66.090210,72.680183 66.284073,72.419579 66.783821,72.115265 
z"/>
<path fill="#0F663C" opacity="1.000000" stroke="none" 
	d="
M101.235321,71.978218 
	C101.163261,71.830940 101.327789,71.569054 101.669861,71.145256 
	C101.843269,71.322533 101.718102,71.615959 101.235321,71.978218 
z"/>
<path fill="#0E683C" opacity="1.000000" stroke="none" 
	d="
M34.243935,45.939049 
	C34.199444,45.775127 34.414459,45.533482 34.846008,45.163734 
	C34.849251,45.286907 34.662888,45.562138 34.243935,45.939049 
z"/>
<path fill="#115F3A" opacity="1.000000" stroke="none" 
	d="
M67.769943,71.133163 
	C67.814316,71.290024 67.611313,71.520851 67.193848,71.865463 
	C67.103127,71.686920 67.284187,71.429543 67.769943,71.133163 
z"/>
<path fill="#13633C" opacity="1.000000" stroke="none" 
	d="
M7.290880,44.117378 
	C7.459131,44.098282 7.644898,44.332405 7.913442,44.781898 
	C7.708461,44.859848 7.479187,44.650955 7.290880,44.117378 
z"/>
<path fill="#0E683C" opacity="1.000000" stroke="none" 
	d="
M33.243774,46.937141 
	C33.200264,46.773235 33.416748,46.531639 33.850655,46.161949 
	C33.853104,46.284973 33.665001,46.560169 33.243774,46.937141 
z"/>
<path fill="#13633C" opacity="1.000000" stroke="none" 
	d="
M10.091610,47.227142 
	C10.230399,47.218643 10.473339,47.446972 10.864063,47.878822 
	C10.739819,47.876217 10.467790,47.670094 10.091610,47.227142 
z"/>
<path fill="#0E683C" opacity="1.000000" stroke="none" 
	d="
M91.771034,66.033661 
	C91.836563,66.179367 91.668755,66.419548 91.336258,66.811317 
	C91.151970,66.628410 91.274010,66.350159 91.771034,66.033661 
z"/>
<path fill="#0C6238" opacity="1.000000" stroke="none" 
	d="
M41.241394,66.940704 
	C41.198517,66.778252 41.415424,66.533104 41.850471,66.157005 
	C41.852451,66.279472 41.663307,66.556793 41.241394,66.940704 
z"/>
<path fill="#0E683C" opacity="1.000000" stroke="none" 
	d="
M32.240780,47.927361 
	C32.197212,47.762733 32.413731,47.523472 32.848618,47.159279 
	C32.850830,47.282307 32.662125,47.555103 32.240780,47.927361 
z"/>
<path fill="#16693F" opacity="1.000000" stroke="none" 
	d="
M46.252258,62.998516 
	C46.032475,62.951344 46.025356,62.758396 46.008766,62.275402 
	C46.166584,61.982780 46.333885,61.980202 46.752266,61.984703 
	C46.823868,62.278770 46.644398,62.565754 46.252258,62.998516 
z"/>
<path fill="#16693F" opacity="1.000000" stroke="none" 
	d="
M51.795509,47.260391 
	C51.803173,47.430614 51.555603,47.605392 51.091042,47.861809 
	C51.032917,47.661606 51.254990,47.435440 51.795509,47.260391 
z"/>
<path fill="#0F663C" opacity="1.000000" stroke="none" 
	d="
M30.767399,61.086693 
	C30.816273,61.253551 30.604250,61.495827 30.172199,61.862041 
	C30.166616,61.737320 30.351391,61.462692 30.767399,61.086693 
z"/>
<path fill="#0F663C" opacity="1.000000" stroke="none" 
	d="
M31.772842,60.091827 
	C31.820015,60.258705 31.607069,60.495914 31.175053,60.853077 
	C31.170616,60.728821 31.356197,60.458530 31.772842,60.091827 
z"/>
<path fill="#0E683C" opacity="1.000000" stroke="none" 
	d="
M31.237759,48.922478 
	C31.192837,48.758217 31.406677,48.519268 31.837875,48.156277 
	C31.841145,48.279160 31.654907,48.551010 31.237759,48.922478 
z"/>
<path fill="#006532" opacity="1.000000" stroke="none" 
	d="
M21.473251,16.983475 
	C21.007586,16.810596 21.009989,16.641010 21.016804,16.216652 
	C52.394943,15.987652 83.768669,16.013420 115.621780,16.053255 
	C113.219704,17.129189 110.209755,16.981207 107.222107,16.982050 
	C78.795181,16.990078 50.368248,16.986795 21.473251,16.983475 
z"/>
<path fill="#026031" opacity="1.000000" stroke="none" 
	d="
M68.534431,26.097000 
	C61.611137,27.548296 54.201687,27.276449 46.395569,26.243919 
	C53.359531,26.105726 60.713177,26.088655 68.534431,26.097000 
z"/>
<path fill="#026031" opacity="1.000000" stroke="none" 
	d="
M111.569885,26.801506 
	C105.892807,26.819027 99.806839,27.565872 93.389816,26.259739 
	C99.067444,26.140457 105.155632,25.433670 111.569885,26.801506 
z"/>
<path fill="#026031" opacity="1.000000" stroke="none" 
	d="
M42.581837,26.096405 
	C41.248756,26.798035 39.467781,26.948193 37.335175,26.208298 
	C38.726250,26.087828 40.439930,26.079834 42.581837,26.096405 
z"/>
<path fill="#005D2D" opacity="1.000000" stroke="none" 
	d="
M29.350534,114.170433 
	C30.439106,114.234047 31.857359,114.438370 33.610107,114.756149 
	C32.523144,114.683449 31.101679,114.497299 29.350534,114.170433 
z"/>
<path fill="#007138" opacity="1.000000" stroke="none" 
	d="
M65.610168,44.299767 
	C66.327164,44.165775 67.288689,44.106541 68.617249,44.041958 
	C67.941093,44.149246 66.897896,44.261879 65.610168,44.299767 
z"/>
<path fill="#026031" opacity="1.000000" stroke="none" 
	d="
M76.625298,26.119041 
	C76.164764,26.180578 75.330406,26.226393 74.251801,26.202118 
	C74.755531,26.122459 75.503502,26.112888 76.625298,26.119041 
z"/>
<path fill="#007138" opacity="1.000000" stroke="none" 
	d="
M51.748497,99.876251 
	C51.245777,99.953278 50.498413,99.958076 49.377499,99.957596 
	C49.837250,99.902878 50.670555,99.853455 51.748497,99.876251 
z"/>
<path fill="#026031" opacity="1.000000" stroke="none" 
	d="
M85.680252,26.127487 
	C85.476654,26.166296 84.936935,26.195354 84.198532,26.178371 
	C84.447937,26.127466 84.896034,26.122601 85.680252,26.127487 
z"/>
<path fill="#0C7241" opacity="1.000000" stroke="none" 
	d="
M26.895641,38.749336 
	C26.929195,38.997433 26.480251,39.014980 26.256100,39.023468 
	C26.191835,38.798679 26.356237,38.568630 26.651794,38.174683 
	C26.806318,38.172119 26.834204,38.336678 26.895641,38.749336 
z"/>
<path fill="#066537" opacity="1.000000" stroke="none" 
	d="
M91.753166,124.088074 
	C92.003326,124.090897 91.628426,124.139992 91.628426,124.139992 
	C91.628426,124.139992 91.250565,124.131447 91.126617,124.110367 
	C91.169449,124.087952 91.336227,124.086609 91.753166,124.088074 
z"/>
<path fill="#086F3B" opacity="1.000000" stroke="none" 
	d="
M26.877071,108.147507 
	C26.893835,108.028343 26.913286,108.506989 26.918747,108.745880 
	C26.865910,108.748566 26.844610,108.509201 26.877071,108.147507 
z"/>
<path fill="#086F3B" opacity="1.000000" stroke="none" 
	d="
M115.144485,107.843010 
	C115.130859,107.960350 115.099052,107.490509 115.090195,107.255913 
	C115.142250,107.252335 115.167847,107.487114 115.144485,107.843010 
z"/>
<path fill="#0C7241" opacity="1.000000" stroke="none" 
	d="
M73.857841,52.924789 
	C73.980560,52.937840 73.488495,52.959400 73.242401,52.965874 
	C73.240097,52.920673 73.486374,52.900475 73.857841,52.924789 
z"/>
</svg>